<svg viewBox="0 0 700 260" xmlns="http://www.w3.org/2000/svg" role="img" aria-label="rolling 7 day average of daily commit count">
  <title>stress chart</title>
  <defs>
    <linearGradient id="lineGrad" x1="0" y1="0" x2="0" y2="1">
      <stop offset="0%" stop-color="#eaf3de"/>
      <stop offset="100%" stop-color="#5dcaa5"/>
    </linearGradient>
  </defs>
  <style>
    text { font-family: 'Courier New', monospace; font-size: 11px; fill: #7fdca4; }
    .axis-title { font-size: 12px; }
  </style>
  <rect x="0" y="0" width="700" height="260" fill="#12211a"/>
  <line x1="55" y1="220.0" x2="680" y2="220.0" stroke="#1a2e23" stroke-width="1"/><line x1="55" y1="170.0" x2="680" y2="170.0" stroke="#1a2e23" stroke-width="1"/><line x1="55" y1="120.0" x2="680" y2="120.0" stroke="#1a2e23" stroke-width="1"/><line x1="55" y1="70.0" x2="680" y2="70.0" stroke="#1a2e23" stroke-width="1"/><line x1="55" y1="20.0" x2="680" y2="20.0" stroke="#1a2e23" stroke-width="1"/>
  <line x1="55" y1="20" x2="55" y2="220" stroke="#2c4536" stroke-width="1"/>
  <line x1="55" y1="220" x2="680" y2="220" stroke="#2c4536" stroke-width="1"/>
  <text x="45" y="220.0" text-anchor="end" dominant-baseline="middle" class="tick">0</text><text x="45" y="170.0" text-anchor="end" dominant-baseline="middle" class="tick">6</text><text x="45" y="120.0" text-anchor="end" dominant-baseline="middle" class="tick">12</text><text x="45" y="70.0" text-anchor="end" dominant-baseline="middle" class="tick">17</text><text x="45" y="20.0" text-anchor="end" dominant-baseline="middle" class="tick">23</text>
  <text x="55.0" y="238" text-anchor="middle" class="tick">Sep 19</text><text x="180.3" y="238" text-anchor="middle" class="tick">Dec 1</text><text x="305.7" y="238" text-anchor="middle" class="tick">Feb 12</text><text x="429.3" y="238" text-anchor="middle" class="tick">Apr 25</text><text x="554.7" y="238" text-anchor="middle" class="tick">Jul 7</text><text x="680.0" y="238" text-anchor="middle" class="tick">Sep 18</text>
  <text x="18" y="120.0" text-anchor="middle" transform="rotate(-90 18 120.0)" class="axis-title">stress (# of commits)</text>
  <polyline points="55.0,220.0 56.7,220.0 58.4,217.1 60.2,205.5 61.9,191.0 63.6,193.9 65.3,205.5 67.0,127.2 68.7,127.2 70.5,121.4 72.2,211.3 73.9,211.3 75.6,217.1 77.3,220.0 79.0,220.0 80.8,220.0 82.5,220.0 84.2,220.0 85.9,220.0 87.6,220.0 89.3,220.0 91.1,220.0 92.8,164.9 94.5,153.3 96.2,153.3 97.9,208.4 99.6,220.0 101.4,220.0 103.1,220.0 104.8,220.0 106.5,220.0 108.2,220.0 109.9,220.0 111.7,220.0 113.4,220.0 115.1,220.0 116.8,220.0 118.5,220.0 120.2,220.0 122.0,220.0 123.7,220.0 125.4,220.0 127.1,220.0 128.8,220.0 130.5,220.0 132.3,220.0 134.0,220.0 135.7,220.0 137.4,220.0 139.1,220.0 140.9,220.0 142.6,220.0 144.3,220.0 146.0,220.0 147.7,220.0 149.4,220.0 151.2,220.0 152.9,220.0 154.6,220.0 156.3,220.0 158.0,220.0 159.7,220.0 161.5,220.0 163.2,220.0 164.9,220.0 166.6,220.0 168.3,191.0 170.0,182.3 171.8,176.5 173.5,205.5 175.2,214.2 176.9,220.0 178.6,220.0 180.3,220.0 182.1,220.0 183.8,220.0 185.5,217.1 187.2,217.1 188.9,217.1 190.6,220.0 192.4,220.0 194.1,220.0 195.8,220.0 197.5,220.0 199.2,220.0 200.9,220.0 202.7,220.0 204.4,220.0 206.1,220.0 207.8,220.0 209.5,208.4 211.2,199.7 213.0,173.6 214.7,185.2 216.4,193.9 218.1,220.0 219.8,220.0 221.6,214.2 223.3,208.4 225.0,208.4 226.7,214.2 228.4,220.0 230.1,217.1 231.9,217.1 233.6,217.1 235.3,220.0 237.0,220.0 238.7,220.0 240.4,220.0 242.2,214.2 243.9,214.2 245.6,196.8 247.3,202.6 249.0,202.6 250.7,214.2 252.5,214.2 254.2,182.3 255.9,188.1 257.6,188.1 259.3,220.0 261.0,220.0 262.8,220.0 264.5,220.0 266.2,220.0 267.9,217.1 269.6,217.1 271.3,214.2 273.1,191.0 274.8,191.0 276.5,188.1 278.2,214.2 279.9,214.2 281.6,220.0 283.4,202.6 285.1,202.6 286.8,202.6 288.5,220.0 290.2,188.1 292.0,176.5 293.7,176.5 295.4,202.6 297.1,188.1 298.8,188.1 300.5,176.5 302.3,202.6 304.0,202.6 305.7,208.4 307.4,199.7 309.1,199.7 310.8,211.3 312.6,211.3 314.3,211.3 316.0,211.3 317.7,182.3 319.4,179.4 321.1,179.4 322.9,217.1 324.6,217.1 326.3,217.1 328.0,217.1 329.7,220.0 331.4,220.0 333.2,217.1 334.9,170.7 336.6,170.7 338.3,173.6 340.0,220.0 341.7,220.0 343.5,220.0 345.2,220.0 346.9,220.0 348.6,153.3 350.3,147.5 352.0,147.5 353.8,188.1 355.5,150.4 357.2,150.4 358.9,176.5 360.6,220.0 362.3,220.0 364.1,220.0 365.8,220.0 367.5,220.0 369.2,220.0 370.9,220.0 372.7,220.0 374.4,220.0 376.1,220.0 377.8,220.0 379.5,220.0 381.2,220.0 383.0,214.2 384.7,193.9 386.4,193.9 388.1,196.8 389.8,205.5 391.5,205.5 393.3,170.7 395.0,182.3 396.7,138.8 398.4,144.6 400.1,80.9 401.8,124.3 403.6,133.0 405.3,196.8 407.0,196.8 408.7,214.2 410.4,199.7 412.1,162.0 413.9,162.0 415.6,162.0 417.3,167.8 419.0,170.7 420.7,176.5 422.4,208.4 424.2,170.7 425.9,179.4 427.6,176.5 429.3,214.2 431.0,214.2 432.7,217.1 434.5,220.0 436.2,179.4 437.9,179.4 439.6,173.6 441.3,214.2 443.0,214.2 444.8,199.7 446.5,199.7 448.2,144.6 449.9,124.3 451.6,121.4 453.4,164.9 455.1,205.5 456.8,196.8 458.5,196.8 460.2,196.8 461.9,199.7 463.7,199.7 465.4,193.9 467.1,188.1 468.8,179.4 470.5,176.5 472.2,135.9 474.0,156.2 475.7,164.9 477.4,220.0 479.1,220.0 480.8,205.5 482.5,147.5 484.3,92.5 486.0,40.3 487.7,20.0 489.4,75.1 491.1,141.7 492.8,220.0 494.6,220.0 496.3,220.0 498.0,220.0 499.7,220.0 501.4,220.0 503.1,220.0 504.9,220.0 506.6,214.2 508.3,214.2 510.0,208.4 511.7,211.3 513.4,211.3 515.2,217.1 516.9,220.0 518.6,211.3 520.3,202.6 522.0,185.2 523.8,193.9 525.5,202.6 527.2,220.0 528.9,217.1 530.6,217.1 532.3,208.4 534.1,211.3 535.8,211.3 537.5,220.0 539.2,220.0 540.9,214.2 542.6,211.3 544.4,208.4 546.1,214.2 547.8,217.1 549.5,220.0 551.2,217.1 552.9,217.1 554.7,211.3 556.4,202.6 558.1,188.1 559.8,193.9 561.5,205.5 563.2,220.0 565.0,220.0 566.7,220.0 568.4,220.0 570.1,220.0 571.8,220.0 573.5,220.0 575.3,220.0 577.0,220.0 578.7,211.3 580.4,211.3 582.1,205.5 583.8,211.3 585.6,211.3 587.3,217.1 589.0,214.2 590.7,211.3 592.4,211.3 594.1,214.2 595.9,199.7 597.6,173.6 599.3,176.5 601.0,170.7 602.7,196.8 604.5,193.9 606.2,211.3 607.9,208.4 609.6,211.3 611.3,217.1 613.0,217.1 614.8,217.1 616.5,217.1 618.2,220.0 619.9,220.0 621.6,220.0 623.3,220.0 625.1,220.0 626.8,208.4 628.5,208.4 630.2,208.4 631.9,211.3 633.6,211.3 635.4,211.3 637.1,217.1 638.8,217.1 640.5,217.1 642.2,220.0 643.9,214.2 645.7,214.2 647.4,214.2 649.1,176.5 650.8,156.2 652.5,156.2 654.2,193.9 656.0,214.2 657.7,214.2 659.4,220.0 661.1,182.3 662.8,182.3 664.5,182.3 666.3,217.1 668.0,217.1 669.7,217.1 671.4,214.2 673.1,214.2 674.8,214.2 676.6,220.0 678.3,220.0 680.0,220.0" fill="none" stroke="url(#lineGrad)" stroke-width="1.5" stroke-linejoin="round" stroke-linecap="round"/>
</svg>